<svg width="64" height="64" viewBox="0 0 64 64" fill="none" xmlns="http://www.w3.org/2000/svg">
<path fill-rule="evenodd" clip-rule="evenodd" d="M20.5218 4.01758C9.5404 10.335 5.76958 24.3927 12.1202 35.3738C14.204 39.0457 16.8503 41.6912 20.5218 43.8086V4.01758Z" fill="#767676"/>
<path fill-rule="evenodd" clip-rule="evenodd" d="M43.4766 4.01758C54.458 10.335 58.2291 24.3927 51.8785 35.3738C49.7618 39.0457 47.1484 41.6912 43.4766 43.8086V4.01758Z" fill="#767676"/>
<path fill-rule="evenodd" clip-rule="evenodd" d="M24.1283 2.33057C23.1359 2.69447 22.342 3.02516 21.3828 3.52121V44.2718C22.342 44.7678 23.1359 45.1317 24.1283 45.4956V25.0541C23.202 20.9526 23.202 17.2814 24.1283 13.1798V2.33057Z" fill="#767676"/>
<path fill-rule="evenodd" clip-rule="evenodd" d="M39.8398 2.33057C40.8319 2.69447 41.659 3.02516 42.6179 3.52121V44.2718C41.72 44.7407 40.7919 45.1495 39.8398 45.4956V25.0541C40.7991 20.9526 40.7991 17.2814 39.8398 13.1798V2.33057Z" fill="#767676"/>
<path fill-rule="evenodd" clip-rule="evenodd" d="M27.9968 1.27197C26.9715 1.47052 26.1116 1.66908 25.0859 1.99977V13.1794C26.0452 17.2809 26.0452 20.9525 25.0859 25.0537V45.7927C26.1112 46.1234 26.9715 46.3219 27.9968 46.5201V26.9724C26.5415 21.581 26.5415 16.6524 27.9968 11.2613V1.27197Z" fill="#767676"/>
<path fill-rule="evenodd" clip-rule="evenodd" d="M36.002 1.27197C37.0272 1.47052 37.8872 1.66908 38.9132 1.99977V13.1794C37.9533 17.2809 37.9533 20.9525 38.9132 25.0537V45.7927C37.8872 46.1234 37.0272 46.3219 36.002 46.5201L35.9688 26.9721C37.4569 21.5807 37.4569 16.6521 35.9688 11.261L36.002 1.27197Z" fill="#767676"/>
<path fill-rule="evenodd" clip-rule="evenodd" d="M31.6033 0.940918C30.6773 0.940918 29.9166 1.00699 28.9902 1.13947V11.2609C30.4787 16.6524 30.4787 21.5806 28.9902 26.9721V46.6858C29.9166 46.7851 30.6773 46.8511 31.6033 46.8511V28.8245C29.5859 22.2092 29.5859 16.0571 31.6033 9.40858V0.940918Z" fill="#767676"/>
<path fill-rule="evenodd" clip-rule="evenodd" d="M32.3984 0.940918C33.3245 0.940918 34.0851 1.00699 35.0112 1.13947V11.2609C33.523 16.6524 33.523 21.5806 35.0112 26.9721V46.6858C34.0851 46.7851 33.3245 46.8511 32.3984 46.8511V28.8245C34.4158 22.2092 34.4158 16.0571 32.3984 9.40858V0.940918Z" fill="#767676"/>
<path fill-rule="evenodd" clip-rule="evenodd" d="M19.0011 51.6145C18.935 50.2917 17.7112 49.2993 16.1895 49.2993C14.2711 49.2993 13.1133 50.6221 13.1133 52.772C13.1133 54.9218 14.2711 56.2453 16.1234 56.2453C17.1155 56.2453 17.8765 55.8814 18.4058 55.1868C18.7033 54.7894 18.935 54.2601 19.0011 53.7969H17.6119C17.4798 54.5576 16.9173 55.0215 16.1234 55.0215C15.1313 55.0215 14.5357 54.1608 14.5357 52.772C14.5357 51.3499 15.131 50.49 16.1895 50.49C16.9502 50.49 17.4466 50.8867 17.6119 51.6145H19.0011ZM27.4688 51.416C27.4356 50.1261 26.4435 49.2993 24.8557 49.2993C23.268 49.2993 22.3419 50.06 22.3419 51.3828C22.3419 52.2756 22.8712 52.8709 23.8636 53.1027L25.7157 53.5659C26.0796 53.6651 26.3445 53.9626 26.3445 54.2604C26.3445 54.7897 25.8481 55.0879 24.955 55.0879C24.0622 55.0879 23.6322 54.7233 23.5658 54.029H22.2427C22.3087 55.485 23.268 56.2456 25.0211 56.2456C26.6749 56.2456 27.6673 55.4189 27.6673 54.0622C27.6673 53.5001 27.5352 53.1694 27.1713 52.8384C26.8738 52.607 26.6088 52.4416 26.146 52.3423L24.1946 51.8792C23.864 51.7799 23.6325 51.5485 23.6325 51.2178C23.6325 50.7546 24.0957 50.4239 24.8232 50.4239C25.617 50.4239 26.047 50.7546 26.1131 51.416H27.4688ZM31.1403 49.465V56.0471H32.5298V49.465H31.1403ZM36.3661 49.465V56.0471H37.7221V53.4669H39.178C39.9387 53.5001 40.2033 53.6983 40.2033 54.3269L40.2365 55.3528C40.2365 55.6174 40.2697 55.7496 40.3686 56.0474H41.9232V55.8821C41.6918 55.7828 41.6257 55.6506 41.6257 55.2861L41.5925 54.1947C41.5925 53.5333 41.3939 53.2026 40.8979 52.938C40.8647 52.938 40.8318 52.9048 40.7657 52.9048C41.4271 52.6734 41.791 52.078 41.791 51.3502C41.791 50.2589 40.9643 49.465 39.7736 49.465H36.3661ZM37.7221 52.3752V50.6224H39.5416C40.1037 50.6224 40.4015 50.9531 40.4015 51.5153C40.4015 52.0445 40.0708 52.342 39.5087 52.342L37.7221 52.3752ZM48.4392 49.2993C47.7778 49.2993 47.1493 49.4647 46.62 49.7954C45.7272 50.3575 45.264 51.3499 45.264 52.7388C45.264 53.5655 45.4294 54.2601 45.7272 54.7894C46.2564 55.7161 47.2485 56.2453 48.4392 56.2453C50.4244 56.2453 51.6147 54.9218 51.6147 52.7388C51.6147 51.3496 51.1515 50.3575 50.2255 49.7954C49.7288 49.465 49.0674 49.2993 48.4392 49.2993ZM48.3399 50.4571H48.406C49.5634 50.4571 50.2255 51.317 50.2255 52.7391C50.2255 54.1944 49.5634 55.0543 48.4389 55.0543C47.3475 55.0543 46.6529 54.1944 46.6529 52.7391C46.6532 51.3831 47.2814 50.5232 48.3399 50.4571ZM17.5458 58.8251L15.9913 62.9599H16.5866L17.0166 61.736H18.6372L19.0672 62.9599H19.6625L18.1744 58.8251H17.5458ZM17.8437 59.4205L18.439 61.24H17.1819L17.8437 59.4205ZM20.1917 58.8251V61.6371C20.1917 61.8685 20.291 62.1663 20.3903 62.3645C20.6881 62.8277 21.1178 63.0591 21.7795 63.0591C22.3087 63.0591 22.7055 62.927 23.0033 62.6292C23.268 62.3977 23.4333 61.9678 23.4333 61.6039V58.8251H22.8712V61.7363C22.8051 62.2324 22.3748 62.5631 21.8127 62.5631C21.1513 62.5631 20.7542 62.1663 20.7542 61.4717V58.8251H20.1917ZM27.3366 60.0487C27.3366 59.1887 26.7742 58.7259 25.7489 58.7259C24.8557 58.7259 24.2936 59.2219 24.2936 59.9826C24.2936 60.2801 24.4257 60.5447 24.6575 60.7101C24.7568 60.8093 24.955 60.9086 25.0875 60.9415L26.2452 61.2061C26.7084 61.306 26.907 61.5036 26.907 61.8682C26.907 62.1328 26.8077 62.2981 26.6091 62.3974C26.4106 62.5296 26.146 62.596 25.8485 62.596C25.1207 62.596 24.7239 62.2321 24.6907 61.6039H24.1614C24.1946 62.0006 24.2275 62.166 24.3268 62.3645C24.4589 62.5631 24.6575 62.7613 24.856 62.8606C25.0875 62.9927 25.4182 63.0591 25.8153 63.0591C26.8406 63.0591 27.4691 62.596 27.4691 61.8024C27.4691 61.2403 27.1384 60.8425 26.5427 60.7104L25.2857 60.4129C25.0211 60.3468 24.8557 60.1815 24.8557 59.9168C24.8557 59.4537 25.2196 59.1894 25.7817 59.1894C26.4103 59.1894 26.7742 59.5201 26.8074 60.0493H27.3366V60.0487ZM27.7995 58.8251V59.3212H29.1887V62.9599H29.7511V59.3212H31.1732V58.8251H27.7995ZM31.7356 58.8251V62.9599H32.2974V61.1732H33.7201C33.8855 61.1732 34.0176 61.2064 34.1501 61.306C34.3487 61.4714 34.3815 61.57 34.3815 62.1328V62.3974L34.4147 62.596C34.4479 62.8274 34.4479 62.8274 34.4808 62.9599H35.1754V62.8606C35.0433 62.7613 34.9769 62.6952 34.9769 62.596L34.9108 61.6039C34.9108 61.24 34.7786 61.074 34.4147 60.9086C34.8447 60.7101 35.0101 60.4126 35.0101 59.9165C35.0101 59.619 34.944 59.4205 34.7786 59.2219C34.5801 58.9905 34.1501 58.8251 33.7201 58.8251H31.7356ZM32.2974 59.288H33.6873L33.7205 59.3212H33.919C34.2165 59.3544 34.4151 59.6187 34.4151 60.0158C34.4151 60.4458 34.1504 60.7104 33.7205 60.7104H32.2977L32.2974 59.288ZM36.9946 58.8251L35.44 62.9599H36.0354L36.4653 61.736H38.1195L38.5163 62.9599H39.1448L37.656 58.8251H36.9946ZM37.2921 59.4205L37.9213 61.24H36.6307L37.2921 59.4205ZM39.6412 58.8251V62.9599H42.2867V62.4638H40.2033V58.8251H39.6412ZM42.9153 58.8251V62.9599H43.4774V58.8251H42.9153ZM45.6279 58.8251L44.0727 62.9599H44.6687L45.0987 61.736H46.7193L47.1493 62.9599H47.7446L46.2564 58.8251H45.6279ZM45.9254 59.4205L46.5207 61.24H45.264L45.9254 59.4205Z" fill="#767676"/>
</svg>
