<svg width="88" height="88" viewBox="0 0 88 88" fill="none" xmlns="http://www.w3.org/2000/svg">
<path fill-rule="evenodd" clip-rule="evenodd" d="M10.2462 72.0408C11.9464 71.8359 13.5232 71.2008 14.7317 69.8696C16.6363 67.7599 17.4353 64.6463 16.3702 61.9016C15.4284 59.5048 13.0521 57.5591 10.4713 57.1706H1.29492V72.0408H10.2462ZM9.52946 68.9885C11.6391 68.7835 13.3598 67.5956 13.6871 65.322C14.1994 62.7622 12.1714 60.1805 9.57009 60.1609H4.4085V68.9885H9.52946ZM30.8104 72.0614H27.8201V61.6761L18.8487 72.0408H14.9572L27.4722 57.1911H30.8104V72.0614ZM45.9473 67.5755V57.1911H48.9381V72.0408L45.4963 72.0614L36.4025 61.4515V72.0408H33.535V57.1911L36.8737 57.1706L45.9473 67.5755ZM54.4476 72.0408H51.5801V57.1911H54.4476V72.0408ZM70.6902 60.1609H60.1616V63.3146H70.6085V66.2232H60.1616V69.2756H70.6085V72.0614H57.1311V57.2117H70.6906V60.1609H70.6902ZM76.322 69.5002H86.7073V72.0815H73.2911V57.2112H76.322V69.5002ZM44.1239 19.8511C46.0085 18.1715 48.057 16.779 50.4529 16.1645L49.0189 15.9185H24.6659V39.4118L44.1239 19.8511Z" fill="#767676"/>
<path fill-rule="evenodd" clip-rule="evenodd" d="M54.4066 17.3726C53.751 16.9631 51.8664 16.5331 51.0273 16.3486C48.6716 17.2293 46.5208 18.6633 44.5956 20.5885L24.666 41.5827V42.0128L46.3359 21.0185C48.5894 18.9495 51.3747 17.6799 54.4066 17.3726Z" fill="#767676"/>
<path fill-rule="evenodd" clip-rule="evenodd" d="M48.3433 21.981L24.666 44.6955L24.7477 44.2043L47.6877 20.6292C49.8385 18.9291 52.3992 17.7617 55.2662 17.8028C56.2496 18.315 57.1718 18.9501 58.052 19.6258C54.6517 18.9496 51.0068 19.728 48.3433 21.981ZM62.0668 24.3979C59.875 22.1655 57.028 21.1209 53.8743 21.6327C52.5315 21.8951 51.2647 22.455 50.1667 23.2712L24.666 47.2973V46.8668L49.019 22.2883C51.6003 19.9531 55.348 19.2774 58.6464 20.1581C60.0188 21.346 61.2473 22.78 62.0668 24.3979ZM61.6363 41.7878C58.7081 46.2527 53.5255 49.5302 48.7122 49.5508H24.7477L50.5347 23.9272C52.8904 21.8582 56.7614 21.4282 59.5065 22.8827C60.7556 23.5383 61.923 24.5623 62.6808 25.7502C65.2411 30.4813 64.5654 37.3635 61.6363 41.7878Z" fill="#767676"/>
</svg>
