<svg width="62" height="62" viewBox="0 0 62 62" fill="none" xmlns="http://www.w3.org/2000/svg">
<path d="M7.04688 30.75C7.04688 17.6591 17.6591 7.04688 30.75 7.04688C43.8409 7.04688 54.4531 17.6591 54.4531 30.75C54.4531 37.296 51.8022 43.2191 47.5106 47.5106C46.7601 48.2612 46.7601 49.478 47.5106 50.2286C48.2612 50.9791 49.478 50.9791 50.2286 50.2286C55.2115 45.2457 58.2969 38.3563 58.2969 30.75C58.2969 15.5363 45.9637 3.20312 30.75 3.20312C15.5363 3.20312 3.20312 15.5363 3.20312 30.75C3.20312 38.3563 6.28852 45.2457 11.2714 50.2286C12.022 50.9791 13.2388 50.9791 13.9894 50.2286C14.7399 49.478 14.7399 48.2612 13.9894 47.5106C9.69783 43.2191 7.04688 37.296 7.04688 30.75Z" fill="url(#paint0_linear_450_20223)"/>
<path d="M17.2969 30.75C17.2969 23.32 23.32 17.2969 30.75 17.2969C38.18 17.2969 44.2031 23.32 44.2031 30.75C44.2031 34.4655 42.6994 37.8262 40.2628 40.2628C39.5123 41.0133 39.5123 42.2302 40.2628 42.9807C41.0133 43.7313 42.2302 43.7313 42.9807 42.9807C46.1088 39.8527 48.0469 35.5259 48.0469 30.75C48.0469 21.1972 40.3028 13.4531 30.75 13.4531C21.1972 13.4531 13.4531 21.1972 13.4531 30.75C13.4531 35.5259 15.3912 39.8527 18.5193 42.9807C19.2698 43.7313 20.4867 43.7313 21.2372 42.9807C21.9877 42.2302 21.9877 41.0133 21.2372 40.2628C18.8006 37.8262 17.2969 34.4655 17.2969 30.75Z" fill="url(#paint1_linear_450_20223)"/>
<path fill-rule="evenodd" clip-rule="evenodd" d="M23.7031 30.75C23.7031 26.8581 26.8581 23.7031 30.75 23.7031C34.6419 23.7031 37.7969 26.8581 37.7969 30.75C37.7969 34.6419 34.6419 37.7969 30.75 37.7969C26.8581 37.7969 23.7031 34.6419 23.7031 30.75ZM30.75 27.5469C28.981 27.5469 27.5469 28.981 27.5469 30.75C27.5469 32.519 28.981 33.9531 30.75 33.9531C32.519 33.9531 33.9531 32.519 33.9531 30.75C33.9531 28.981 32.519 27.5469 30.75 27.5469Z" fill="#1E3C8C"/>
<path fill-rule="evenodd" clip-rule="evenodd" d="M34.3197 40.3425C33.3518 39.6564 32.3125 39.146 31.0506 39.0854C30.8503 39.0757 30.6497 39.0757 30.4494 39.0854C29.1876 39.146 28.1482 39.6564 27.1803 40.3425C26.2783 40.982 25.282 41.8915 24.1248 42.948L23.9232 43.1321C21.3481 45.4826 19.2658 47.3834 17.9391 48.9666C16.6655 50.4864 15.495 52.3938 16.2505 54.519C16.3513 54.8027 16.4759 55.077 16.6226 55.3395C17.6751 57.2233 19.8142 57.7864 21.8698 58.0362C24.015 58.297 26.9454 58.2969 30.6056 58.2969H30.8943C34.5545 58.2969 37.485 58.297 39.6302 58.0362C41.6858 57.7864 43.8249 57.2233 44.8774 55.3395C45.0241 55.077 45.1487 54.8027 45.2495 54.519C46.005 52.3938 44.8345 50.4864 43.5609 48.9666C42.2342 47.3834 40.1519 45.4827 37.5769 43.1321L37.3752 42.948C36.218 41.8915 35.2217 40.982 34.3197 40.3425ZM29.4032 43.4783C30.044 43.0241 30.3781 42.937 30.634 42.9247C30.7113 42.9209 30.7887 42.9209 30.866 42.9247C31.1219 42.937 31.456 43.0241 32.0968 43.4783C32.7816 43.9638 33.6027 44.7087 34.8679 45.8637C37.5879 48.3466 39.4743 50.0744 40.6149 51.4354C41.1792 52.1088 41.4556 52.5728 41.574 52.8837C41.6675 53.1293 41.6379 53.2055 41.6291 53.2284L41.6278 53.2317C41.5999 53.3102 41.5647 53.3882 41.5219 53.4648C41.4721 53.5539 41.1688 53.9772 39.1664 54.2206C37.2817 54.4496 34.5873 54.4531 30.75 54.4531C26.9127 54.4531 24.2183 54.4496 22.3336 54.2206C20.3312 53.9772 20.0279 53.5539 19.9781 53.4648C19.9353 53.3882 19.9001 53.3102 19.8722 53.2317L19.871 53.2283C19.8621 53.2055 19.8325 53.1293 19.926 52.8837C20.0444 52.5728 20.3208 52.1088 20.8851 51.4354C22.0257 50.0744 23.9121 48.3466 26.6321 45.8637C27.8973 44.7087 28.7184 43.9638 29.4032 43.4783Z" fill="#1E3C8C"/>
<defs>
<linearGradient id="paint0_linear_450_20223" x1="56.5752" y1="3.20309" x2="0.970224" y2="3.17329" gradientUnits="userSpaceOnUse">
<stop stop-color="#3CAADF"/>
<stop offset="0.5" stop-color="#F04123"/>
<stop offset="1" stop-color="#FFD212"/>
</linearGradient>
<linearGradient id="paint1_linear_450_20223" x1="56.5752" y1="3.20309" x2="0.970224" y2="3.17329" gradientUnits="userSpaceOnUse">
<stop stop-color="#3CAADF"/>
<stop offset="0.5" stop-color="#F04123"/>
<stop offset="1" stop-color="#FFD212"/>
</linearGradient>
</defs>
</svg>
