<svg width="72" height="72" viewBox="0 0 72 72" fill="none" xmlns="http://www.w3.org/2000/svg">
<path fill-rule="evenodd" clip-rule="evenodd" d="M19.6404 22.5852C18.6741 23.4286 18.0645 24.6628 18.0645 26.0426C18.0645 28.5718 20.1185 30.6265 22.6525 30.6265C24.0312 30.6265 25.2668 30.0147 26.1088 29.0495C24.5595 28.6316 23.1469 27.8148 22.0119 26.6805C20.8769 25.5463 20.0592 24.1342 19.6404 22.5852Z" fill="#767676"/>
<path fill-rule="evenodd" clip-rule="evenodd" d="M28.494 11.0281C23.4199 11.0281 19.3137 15.1339 19.3137 20.2042C19.3137 21.0278 19.4329 21.8264 19.6402 22.5854C20.4741 21.8561 21.5445 21.4543 22.6523 21.4548C25.1852 21.4548 27.2404 23.5058 27.2404 26.0428C27.2404 27.1952 26.8108 28.2455 26.1086 29.0501C26.868 29.2563 27.6662 29.3732 28.494 29.3732C33.5557 29.3732 37.6675 25.2663 37.6675 20.2046C37.6675 15.1339 33.5557 11.0281 28.494 11.0281ZM3.17578 54.5487H3.38309C6.79528 54.5487 8.24793 53.0393 8.24793 49.5408V32.3749H15.1851V50.5333C15.1851 57.1978 10.6393 60.9719 5.49839 60.9719H3.17578V54.5487ZM19.2637 32.3749H26.1956V54.855H19.2637V32.3749ZM16.3035 26.0428C16.3035 23.5058 14.2479 21.4548 11.7184 21.4548C11.1158 21.4543 10.519 21.5727 9.96215 21.8031C9.40533 22.0335 8.89939 22.3715 8.47329 22.7976C8.04719 23.2238 7.70929 23.7297 7.47892 24.2866C7.24854 24.8434 7.13022 25.4402 7.13071 26.0428C7.13071 28.572 9.1825 30.6268 11.7184 30.6268C14.2479 30.6268 16.3035 28.5716 16.3035 26.0428ZM61.7601 54.855H68.8228L60.678 32.3745H53.6101L45.463 54.855H52.5287L53.5391 51.4305H60.7449L61.7601 54.855ZM54.9365 46.7136L57.1433 39.2407L59.3531 46.7136H54.9365ZM41.2713 48.7844C38.2745 48.7844 35.8446 46.4715 35.8446 43.6151C35.8446 40.7617 38.2741 38.4496 41.2713 38.4496C42.6653 38.4496 43.9386 38.9501 44.8979 39.7738V33.0827C43.57 32.543 41.7352 32.2356 40.2134 32.2356C33.9243 32.2356 28.8294 37.3313 28.8294 43.6155C28.8294 49.9065 33.9243 54.9951 40.2134 54.9951C41.7352 54.9951 43.57 54.6918 44.8979 54.1483V47.4606C43.9386 48.2813 42.6657 48.7844 41.2713 48.7844Z" fill="#767676"/>
</svg>
