<svg width="50" height="64" viewBox="0 0 50 64" fill="none" xmlns="http://www.w3.org/2000/svg">
<path fill-rule="evenodd" clip-rule="evenodd" d="M0.380327 51.6516H6.39991C7.40597 51.6516 8.18595 51.8146 8.73547 52.1402C9.28718 52.4659 9.65402 52.8517 9.83379 53.2998C10.0136 53.7472 10.1036 54.2187 10.1036 54.7044C10.1036 55.9442 9.44544 56.7796 8.13271 57.2077V57.2249C8.75006 57.3467 9.33094 57.638 9.87317 58.0946C10.4147 58.5518 10.6871 59.288 10.6871 60.2937C10.6871 61.2247 10.4489 61.9419 9.97782 62.4404C9.51757 62.9316 8.92056 63.2734 8.26398 63.4217C7.59595 63.577 6.86958 63.6547 6.08923 63.6547H0.380327V51.6516ZM3.21217 53.985V56.3807H5.81684C6.29781 56.3807 6.65261 56.2575 6.88088 56.0117C7.10915 55.7659 7.22365 55.4768 7.22365 55.1493C7.22365 54.8915 7.12629 54.6315 6.93448 54.3737C6.74304 54.1166 6.32917 53.985 5.6976 53.985H3.21217ZM3.21217 58.5978V61.3213H6.14028C6.48013 61.3213 6.82545 61.2218 7.17551 61.0223C7.52521 60.8236 7.70279 60.4688 7.70279 59.9681C7.70279 59.6184 7.581 59.3099 7.34289 59.0423C7.10185 58.7753 6.74523 58.6313 6.27848 58.6149C6.14502 58.6149 6.03526 58.6127 5.95504 58.6072C5.87518 58.6021 5.81465 58.5981 5.78038 58.5981L3.21217 58.5978ZM18.3523 64C17.1763 64 16.1819 63.7936 15.3808 63.3903C14.5764 62.9837 13.9466 62.4539 13.4948 61.8026C13.0423 61.151 12.7269 60.4688 12.5493 59.7588C12.3745 59.0702 12.2846 58.3627 12.2817 57.6522C12.2817 56.962 12.3721 56.2578 12.5515 55.5428C12.7313 54.8284 13.0474 54.1454 13.4948 53.4993C13.9419 52.8498 14.5687 52.32 15.3713 51.9167C16.1724 51.5138 17.1686 51.3092 18.3527 51.3092C19.4145 51.3092 20.3382 51.4795 21.1159 51.8172C21.8959 52.1577 22.5304 52.6241 23.0161 53.2123C23.5026 53.8027 23.8617 54.4787 24.0856 55.2321C24.3095 55.9854 24.4233 56.7946 24.4233 57.6522C24.4233 58.5132 24.3092 59.3194 24.0856 60.0724C23.8699 60.8101 23.5069 61.4964 23.0187 62.09C22.5326 62.6803 21.8959 63.1467 21.1181 63.4873C20.3382 63.8279 19.4145 63.9978 18.3527 63.9978L18.3523 64ZM18.3523 61.6644C19.1009 61.6644 19.793 61.3968 20.4224 60.8666C21.0547 60.3353 21.3705 59.2614 21.3705 57.6519C21.3705 56.6119 21.2224 55.7929 20.9311 55.1996C20.639 54.6071 20.2649 54.1961 19.8153 53.9755C19.36 53.7527 18.8592 53.6386 18.3523 53.6422C17.4184 53.6422 16.6822 53.9606 16.1506 54.5943C15.6185 55.2288 15.3516 56.2494 15.3516 57.6519C15.3516 58.6882 15.4975 59.5028 15.7863 60.0961C16.0751 60.6894 16.4441 61.1025 16.8915 61.326C17.3451 61.5521 17.8455 61.668 18.3523 61.6644ZM26.4799 51.6516H31.6411C33.2087 51.6516 34.4288 51.9827 35.296 52.6387C36.1664 53.2947 36.7469 54.0725 37.0364 54.9648C37.3278 55.8563 37.4736 56.7483 37.4736 57.6355C37.4736 61.6473 35.444 63.6543 31.3859 63.6543H26.4795L26.4799 51.6516ZM29.3106 53.985V61.3213H31.1091C32.2614 61.3213 33.1019 61.0106 33.6288 60.3933C34.1557 59.7759 34.4215 58.872 34.4215 57.6913C34.4215 55.2222 33.3739 53.985 31.2816 53.985H29.3106ZM42.361 56.4157H48.223V58.6313H42.361V61.3213H49.1824V63.6543H39.5299V51.6516H49.0099V53.9846H42.361V56.4157ZM24.1389 0.0136662C22.4174 -0.0570753 20.6642 0.142022 19.3438 0.723268L2.23784 9.14077C0.643966 9.92512 0.0532384 12.2826 0 13.9505V21.9668L21.9014 11.0646C22.6737 10.6912 23.4198 10.5038 24.1385 10.5038C24.858 10.5038 25.6037 10.6912 26.3763 11.065L48.2777 21.9672V13.9512C48.2245 12.2829 47.6338 9.92549 46.0399 9.14113L28.9336 0.723997C27.6136 0.142751 25.86 -0.0567106 24.1389 0.0136662ZM24.1389 47.3025C22.4174 47.3729 20.6642 47.1734 19.3438 46.5925L2.23784 38.175C0.643966 37.391 0.0532384 35.0336 0 33.3657V25.3489L21.9014 36.2504C22.6737 36.6242 23.4198 36.8116 24.1385 36.8116V36.8109C24.858 36.8109 25.6037 36.6242 26.3763 36.2504L48.2777 25.3482V33.3646C48.2245 35.0332 47.6338 37.3899 46.0399 38.1746L28.9336 46.5914C27.6136 47.1734 25.86 47.3721 24.1389 47.3025Z" fill="#767676"/>
</svg>
