<svg width="88" height="88" viewBox="0 0 88 88" fill="none" xmlns="http://www.w3.org/2000/svg">
<path fill-rule="evenodd" clip-rule="evenodd" d="M9.24127 34.1995C10.6182 34.1995 12.2403 34.1995 13.2729 36.0183C14.1089 37.5422 14.5019 39.2629 16.3208 39.2629C17.5991 39.2629 18.1889 37.3948 18.2382 36.4114C18.3364 33.2161 20.893 29.8729 23.6952 27.4145C25.0716 26.2348 26.6942 25.3007 28.4149 24.3666L28.5623 26.6772C30.3319 25.0053 32.5447 23.6782 34.7566 22.6948V24.9072C36.8211 22.8916 38.9846 21.0727 41.1969 20.4824V52.8316H37.5095V27.6605C35.9363 29.037 35.0515 30.4627 34.8552 31.9871V55.6841H31.0696V29.7747C29.4964 31.3973 28.6605 32.7737 28.5623 33.9534V58.6337H24.5311V32.1839C23.6952 32.6263 22.663 33.9046 22.3187 35.0354C21.0897 39.0173 21.1879 39.6565 20.4999 41.1315C19.8119 42.6559 17.5991 43.049 16.3208 43.049C14.7969 43.049 13.6172 42.9504 11.8965 41.0334C11.3066 40.3942 10.7168 38.0832 9.09381 38.0832C7.86482 38.0832 7.91412 39.6076 7.91412 40.4431L7.86482 58.2895C7.86482 59.5181 7.81551 60.2558 8.25835 60.6977C8.60212 61.042 9.09381 61.0908 9.97904 61.042H41.1974V64.9262H9.88042C8.06159 64.9262 6.73352 64.4838 5.70175 63.6483C4.91469 62.911 3.83361 61.288 3.88246 59.7641V38.4768C3.93176 37.3952 4.37415 36.4119 5.25937 35.5271C6.53721 34.2976 7.96297 34.1502 9.24127 34.1995ZM51.128 63.8446C50.7349 64.3359 50.2432 64.6312 49.6534 64.7792C49.1119 64.9755 48.5718 65.0243 48.0313 65.0243C45.7203 65.0243 44.4425 63.9428 44.4425 60.1577V52.6353C44.4425 48.8502 46.5558 47.8175 48.916 47.8175C51.7676 47.8175 53.3403 49.046 53.3896 52.2911V54.0611H49.8506V51.7506C49.8506 51.0621 49.6534 50.4718 48.916 50.4718C48.1787 50.4718 47.9815 51.0621 47.9815 51.7506V61.042C47.9815 61.7304 48.1294 62.3696 48.916 62.3696C49.6534 62.3696 49.8506 61.7304 49.8506 61.042V58.8296H48.4737V56.3223H53.3896V64.6801H51.3256L51.128 63.8446ZM54.8149 64.6308V48.0636H59.0922C61.9438 48.0636 63.7137 48.8009 63.7137 51.6524V54.6509C63.7137 57.1582 61.6977 58.2397 59.6328 58.2397H58.3061V64.6303L54.8149 64.6308ZM58.3061 55.8799H58.8964C60.1249 55.8799 60.2231 55.1426 60.2231 53.1763C60.2231 51.2091 60.1249 50.4718 58.8964 50.4718H58.3061V55.8799ZM64.8446 64.6308V48.0636H68.4334C71.7762 48.0636 73.7922 48.4566 73.7922 51.9469C73.7922 54.0118 73.0047 55.3398 71.0877 55.7329V55.7818C72.7595 55.7818 73.7922 56.5191 73.7922 58.8784V62.3203C73.7922 63.0087 73.8904 63.9912 74.2835 64.6308H70.7435C70.3011 63.9916 70.2523 63.0087 70.2523 62.3203V58.8296C70.2523 57.6499 69.6131 57.0596 68.9735 57.0596H68.3841V64.6308H64.8446ZM68.3846 54.7002C70.0066 54.7002 70.2527 54.1099 70.2527 52.586C70.2527 51.0621 70.0066 50.4718 68.3846 50.4718V54.7002ZM84.1163 58.1914V60.4037C84.1163 63.5004 82.5924 64.9755 79.6427 64.9755C77.2824 64.9755 75.1682 63.9428 75.1682 60.1088V52.5865C75.1682 48.8013 77.2824 47.7686 79.6427 47.7686C82.1993 47.7686 84.1163 48.6041 84.1163 52.1929V54.0118H80.5763V51.7012C80.5763 51.0621 80.38 50.4225 79.6427 50.4225C78.9054 50.4225 78.7082 51.0616 78.7082 51.7012V60.9931C78.7082 61.6816 78.9054 62.3207 79.6427 62.3207C80.38 62.3207 80.5763 61.6816 80.5763 60.9931L80.6252 58.1914H84.1163Z" fill="#767676"/>
</svg>
