<svg width="62" height="62" viewBox="0 0 62 62" fill="none" xmlns="http://www.w3.org/2000/svg">
<path d="M38.4375 56.375C38.4375 51.6055 38.4375 49.2207 39.0646 47.2907C40.332 43.3901 43.3901 40.332 47.2907 39.0646C49.2207 38.4375 51.6055 38.4375 56.375 38.4375" stroke="black" stroke-width="3.84375"/>
<path d="M38.4375 56.375C38.4375 51.6055 38.4375 49.2207 39.0646 47.2907C40.332 43.3901 43.3901 40.332 47.2907 39.0646C49.2207 38.4375 51.6055 38.4375 56.375 38.4375" stroke="url(#paint0_linear_420_13643)" stroke-width="3.84375"/>
<path d="M30.75 56.375H38.4375C48.3441 56.375 56.375 48.3441 56.375 38.4375V30.75C56.375 18.6703 56.375 12.6304 52.6223 8.87769C48.8696 5.125 42.8297 5.125 30.75 5.125C18.6703 5.125 12.6304 5.125 8.87769 8.87769C5.125 12.6304 5.125 18.6703 5.125 30.75C5.125 42.8297 5.125 48.8696 8.87769 52.6223C12.6304 56.375 18.6703 56.375 30.75 56.375Z" stroke="#1E3C8C" stroke-width="3.84375"/>
<defs>
<linearGradient id="paint0_linear_420_13643" x1="56.375" y1="47.5821" x2="34.5706" y2="47.5821" gradientUnits="userSpaceOnUse">
<stop stop-color="#3CAADF"/>
<stop offset="0.5" stop-color="#F04123"/>
<stop offset="1" stop-color="#FFD212"/>
</linearGradient>
</defs>
</svg>
