<svg width="28" height="28" viewBox="0 0 28 28" fill="none" xmlns="http://www.w3.org/2000/svg">
<path d="M2.3335 13.9997C2.3335 7.55635 7.55684 2.33301 14.0002 2.33301C20.4435 2.33301 25.6668 7.55635 25.6668 13.9997C25.6668 20.443 20.4435 25.6663 14.0002 25.6663C7.55684 25.6663 2.3335 20.443 2.3335 13.9997Z" stroke="#1E3C8C" stroke-width="1.75"/>
<path d="M10.7476 11.8683L13.0985 9.99615C14.6181 8.78603 15.3779 8.18096 15.8555 8.47981C16.333 8.77865 16.0851 9.70402 15.5891 11.5548L15.5424 11.7293C15.3635 12.3968 15.2741 12.7306 15.4313 12.9971L15.4397 13.0109C15.6027 13.2742 15.95 13.3673 16.6448 13.5535C17.895 13.8885 18.5201 14.056 18.6298 14.4918C18.6316 14.499 18.6333 14.5062 18.6349 14.5135C18.7312 14.952 18.238 15.3447 17.2517 16.1301L14.9008 18.0022C13.3812 19.2123 12.6214 19.8174 12.1438 19.5185C11.6663 19.2197 11.9142 18.2943 12.4102 16.4436L12.4569 16.2691C12.6358 15.6016 12.7252 15.2678 12.568 15.0013L12.5596 14.9875C12.3967 14.7241 12.0493 14.6311 11.3545 14.4449C10.1043 14.1099 9.47917 13.9424 9.3695 13.5066C9.36768 13.4994 9.36598 13.4922 9.36438 13.4849C9.26812 13.0464 9.76128 12.6537 10.7476 11.8683Z" stroke="#3CAADF" stroke-width="1.75"/>
</svg>
