<svg width="28" height="28" viewBox="0 0 28 28" fill="none" xmlns="http://www.w3.org/2000/svg">
<path d="M8.1665 11.667C8.1665 10.0171 8.1665 9.19212 8.67907 8.67956C9.19163 8.16699 10.0166 8.16699 11.6665 8.16699H16.3332C17.9831 8.16699 18.808 8.16699 19.3206 8.67956C19.8332 9.19212 19.8332 10.0171 19.8332 11.667V16.3337C19.8332 17.9836 19.8332 18.8085 19.3206 19.3211C18.808 19.8337 17.9831 19.8337 16.3332 19.8337H11.6665C10.0166 19.8337 9.19163 19.8337 8.67907 19.3211C8.1665 18.8085 8.1665 17.9836 8.1665 16.3337V11.667Z" stroke="#1E3C8C" stroke-width="1.75"/>
<path d="M4.6665 14H2.33317" stroke="#1E3C8C" stroke-width="1.75" stroke-linecap="round"/>
<path d="M25.6665 14H23.3332" stroke="#1E3C8C" stroke-width="1.75" stroke-linecap="round"/>
<path d="M4.6665 10.5H2.33317" stroke="#1E3C8C" stroke-width="1.75" stroke-linecap="round"/>
<path d="M25.6665 10.5H23.3332" stroke="#1E3C8C" stroke-width="1.75" stroke-linecap="round"/>
<path d="M4.6665 17.5H2.33317" stroke="#1E3C8C" stroke-width="1.75" stroke-linecap="round"/>
<path d="M25.6665 17.5H23.3332" stroke="#1E3C8C" stroke-width="1.75" stroke-linecap="round"/>
<path d="M14 23.334L14 25.6673" stroke="#1E3C8C" stroke-width="1.75" stroke-linecap="round"/>
<path d="M14 2.33301L14 4.66634" stroke="#1E3C8C" stroke-width="1.75" stroke-linecap="round"/>
<path d="M10.5 23.334L10.5 25.6673" stroke="#1E3C8C" stroke-width="1.75" stroke-linecap="round"/>
<path d="M10.5 2.33301L10.5 4.66634" stroke="#1E3C8C" stroke-width="1.75" stroke-linecap="round"/>
<path d="M17.5 23.334L17.5 25.6673" stroke="#1E3C8C" stroke-width="1.75" stroke-linecap="round"/>
<path d="M17.5 2.33301L17.5 4.66634" stroke="#1E3C8C" stroke-width="1.75" stroke-linecap="round"/>
<path d="M14.5002 11.666L12.8335 13.9993H15.1668L13.5002 16.3327" stroke="#3CAADF" stroke-width="1.75" stroke-linecap="round" stroke-linejoin="round"/>
<path d="M4.6665 14.0003C4.6665 9.60055 4.6665 7.40066 6.03334 6.03383C7.40017 4.66699 9.60006 4.66699 13.9998 4.66699C18.3996 4.66699 20.5995 4.66699 21.9663 6.03383C23.3332 7.40066 23.3332 9.60055 23.3332 14.0003C23.3332 18.4001 23.3332 20.6 21.9663 21.9668C20.5995 23.3337 18.3996 23.3337 13.9998 23.3337C9.60006 23.3337 7.40017 23.3337 6.03334 21.9668C4.6665 20.6 4.6665 18.4001 4.6665 14.0003Z" stroke="#3CAADF" stroke-width="1.75"/>
</svg>
