<svg width="28" height="28" viewBox="0 0 28 28" fill="none" xmlns="http://www.w3.org/2000/svg">
<g clip-path="url(#clip0_436_18053)">
<path d="M19.3867 11.2323L13.6271 17.7197C13.5531 17.8034 13.4622 17.8714 13.3603 17.9196C13.2583 17.9678 13.1472 17.9952 13.034 18H12.9997C12.782 18.0001 12.573 17.9169 12.4175 17.7684L9.86 15.3255C9.78198 15.2509 9.71977 15.1621 9.67695 15.0641C9.63412 14.9662 9.6115 14.8609 9.61039 14.7544C9.60815 14.5393 9.69364 14.3322 9.84805 14.1785C10.0025 14.0249 10.2131 13.9373 10.4337 13.9351C10.6544 13.933 10.8668 14.0163 11.0244 14.1669L12.9477 16.0061L18.1303 10.171C18.2746 10.0084 18.4793 9.90829 18.6994 9.89279C18.9194 9.8773 19.1367 9.94766 19.3035 10.0884C19.4703 10.2291 19.573 10.4287 19.5889 10.6432C19.6048 10.8578 19.5326 11.0697 19.3883 11.2323H19.3867Z" fill="#3CAADF" stroke="#3CAADF"/>
<path d="M13.3194 4.065C13.7181 3.75482 14.2822 3.75482 14.6809 4.065C17.0983 5.94561 20.0679 6.98238 23.1323 7.01391C23.5929 7.01865 24.0119 7.31007 24.1169 7.75861C24.4838 9.3268 24.5779 10.9485 24.3929 12.5524C24.178 14.4164 23.5905 16.2181 22.6654 17.8506C21.7404 19.4831 20.4966 20.9129 19.008 22.0552C17.588 23.1448 15.973 23.9516 14.2506 24.4326C14.0868 24.4783 13.9135 24.4783 13.7497 24.4326C12.0273 23.9516 10.4122 23.1448 8.99227 22.0552C7.50368 20.9129 6.25989 19.4831 5.33483 17.8506C4.40976 16.2181 3.82229 14.4164 3.60732 12.5524C3.42236 10.9485 3.51642 9.3268 3.88337 7.75861C3.98833 7.31007 4.40734 7.01865 4.86797 7.01391C7.9324 6.98238 10.902 5.94561 13.3194 4.065Z" stroke="#1E3C8C" stroke-width="1.75" stroke-linecap="round" stroke-linejoin="round"/>
</g>
<defs>
<clipPath id="clip0_436_18053">
<rect width="28" height="28" fill="white"/>
</clipPath>
</defs>
</svg>
