<svg width="61" height="61" viewBox="0 0 61 61" fill="none" xmlns="http://www.w3.org/2000/svg">
<path d="M55.7375 27.8691L5.06689 27.8691" stroke="#1C274C" stroke-width="3.80029" stroke-linecap="round"/>
<path d="M55.7375 27.8691L5.06689 27.8691" stroke="url(#paint0_linear_378_2887)" stroke-width="3.80029" stroke-linecap="round"/>
<path d="M5.06689 17.6067C5.06689 15.3708 5.06689 14.2529 5.2426 13.3216C6.01606 9.22218 9.22266 6.01557 13.3221 5.24211C14.2533 5.06641 15.3713 5.06641 17.6072 5.06641C18.5869 5.06641 19.0767 5.06641 19.5475 5.11043C21.577 5.30022 23.5022 6.09764 25.0715 7.39856C25.4355 7.7003 25.7819 8.04666 26.4746 8.73938L27.8687 10.1335C29.9355 12.2003 30.9689 13.2337 32.2064 13.9222C32.8862 14.3004 33.6072 14.5991 34.3554 14.8123C35.7173 15.2005 37.1787 15.2005 40.1016 15.2005H41.0483C47.7175 15.2005 51.0521 15.2005 53.2196 17.15C53.4189 17.3293 53.6087 17.519 53.788 17.7184C55.7375 19.8859 55.7375 23.2205 55.7375 29.8897V35.4688C55.7375 45.0233 55.7375 49.8006 52.7693 52.7688C49.801 55.737 45.0238 55.737 35.4692 55.737H25.3351C15.7806 55.737 11.0033 55.737 8.03511 52.7688C5.06689 49.8006 5.06689 45.0233 5.06689 35.4688V17.6067Z" stroke="white" stroke-width="3.80029"/>
<defs>
<linearGradient id="paint0_linear_378_2887" x1="54.2644" y1="28.1965" x2="15.7967" y2="-1.36203" gradientUnits="userSpaceOnUse">
<stop stop-color="#3CAADF"/>
<stop offset="0.5" stop-color="#F04123"/>
<stop offset="1" stop-color="#FFD212"/>
</linearGradient>
</defs>
</svg>
